<mxfile host="Electron" modified="2023-11-30T07:15:39.228Z" agent="Mozilla/5.0 (Macintosh; Intel Mac OS X 10_15_7) AppleWebKit/537.36 (KHTML, like Gecko) draw.io/21.6.5 Chrome/114.0.5735.243 Electron/25.3.1 Safari/537.36" etag="fWPTkASC4cVafPu6eDWR" version="21.6.5" type="device">
  <diagram name="Page-1" id="4Vmjak2NImjbadSPgrqC">
    <mxGraphModel dx="988" dy="578" grid="1" gridSize="10" guides="1" tooltips="1" connect="1" arrows="1" fold="1" page="1" pageScale="1" pageWidth="850" pageHeight="1100" math="0" shadow="0">
      <root>
        <mxCell id="0" />
        <mxCell id="1" parent="0" />
        <mxCell id="pCKhLSZLh_s8INQtUIwe-8" style="edgeStyle=orthogonalEdgeStyle;rounded=0;orthogonalLoop=1;jettySize=auto;html=1;exitX=1;exitY=0.5;exitDx=0;exitDy=0;entryX=0;entryY=0.5;entryDx=0;entryDy=0;" edge="1" parent="1" source="pCKhLSZLh_s8INQtUIwe-1" target="pCKhLSZLh_s8INQtUIwe-2">
          <mxGeometry relative="1" as="geometry" />
        </mxCell>
        <mxCell id="pCKhLSZLh_s8INQtUIwe-1" value="State 0" style="ellipse;whiteSpace=wrap;html=1;" vertex="1" parent="1">
          <mxGeometry x="110" y="290" width="120" height="80" as="geometry" />
        </mxCell>
        <mxCell id="pCKhLSZLh_s8INQtUIwe-11" style="edgeStyle=orthogonalEdgeStyle;rounded=0;orthogonalLoop=1;jettySize=auto;html=1;exitX=1;exitY=0.5;exitDx=0;exitDy=0;" edge="1" parent="1" source="pCKhLSZLh_s8INQtUIwe-2" target="pCKhLSZLh_s8INQtUIwe-3">
          <mxGeometry relative="1" as="geometry" />
        </mxCell>
        <mxCell id="pCKhLSZLh_s8INQtUIwe-12" value="0" style="edgeLabel;html=1;align=center;verticalAlign=middle;resizable=0;points=[];" vertex="1" connectable="0" parent="pCKhLSZLh_s8INQtUIwe-11">
          <mxGeometry x="-0.3412" y="-1" relative="1" as="geometry">
            <mxPoint as="offset" />
          </mxGeometry>
        </mxCell>
        <mxCell id="pCKhLSZLh_s8INQtUIwe-2" value="State 1&lt;br&gt;1" style="ellipse;whiteSpace=wrap;html=1;" vertex="1" parent="1">
          <mxGeometry x="320" y="290" width="120" height="80" as="geometry" />
        </mxCell>
        <mxCell id="pCKhLSZLh_s8INQtUIwe-13" style="edgeStyle=orthogonalEdgeStyle;rounded=0;orthogonalLoop=1;jettySize=auto;html=1;exitX=0;exitY=1;exitDx=0;exitDy=0;entryX=1;entryY=0;entryDx=0;entryDy=0;" edge="1" parent="1" source="pCKhLSZLh_s8INQtUIwe-3" target="pCKhLSZLh_s8INQtUIwe-4">
          <mxGeometry relative="1" as="geometry" />
        </mxCell>
        <mxCell id="pCKhLSZLh_s8INQtUIwe-14" value="0" style="edgeLabel;html=1;align=center;verticalAlign=middle;resizable=0;points=[];" vertex="1" connectable="0" parent="pCKhLSZLh_s8INQtUIwe-13">
          <mxGeometry x="-0.0375" y="1" relative="1" as="geometry">
            <mxPoint as="offset" />
          </mxGeometry>
        </mxCell>
        <mxCell id="pCKhLSZLh_s8INQtUIwe-15" style="edgeStyle=orthogonalEdgeStyle;rounded=0;orthogonalLoop=1;jettySize=auto;html=1;exitX=0;exitY=0;exitDx=0;exitDy=0;entryX=1;entryY=1;entryDx=0;entryDy=0;" edge="1" parent="1" source="pCKhLSZLh_s8INQtUIwe-3" target="pCKhLSZLh_s8INQtUIwe-2">
          <mxGeometry relative="1" as="geometry" />
        </mxCell>
        <mxCell id="pCKhLSZLh_s8INQtUIwe-16" value="1" style="edgeLabel;html=1;align=center;verticalAlign=middle;resizable=0;points=[];" vertex="1" connectable="0" parent="pCKhLSZLh_s8INQtUIwe-15">
          <mxGeometry x="0.4125" relative="1" as="geometry">
            <mxPoint as="offset" />
          </mxGeometry>
        </mxCell>
        <mxCell id="pCKhLSZLh_s8INQtUIwe-3" value="State 2&lt;br&gt;10" style="ellipse;whiteSpace=wrap;html=1;" vertex="1" parent="1">
          <mxGeometry x="600" y="490" width="120" height="80" as="geometry" />
        </mxCell>
        <mxCell id="pCKhLSZLh_s8INQtUIwe-17" style="edgeStyle=orthogonalEdgeStyle;rounded=0;orthogonalLoop=1;jettySize=auto;html=1;exitX=0;exitY=0.5;exitDx=0;exitDy=0;entryX=1;entryY=0.5;entryDx=0;entryDy=0;" edge="1" parent="1" source="pCKhLSZLh_s8INQtUIwe-4" target="pCKhLSZLh_s8INQtUIwe-6">
          <mxGeometry relative="1" as="geometry" />
        </mxCell>
        <mxCell id="pCKhLSZLh_s8INQtUIwe-18" value="1" style="edgeLabel;html=1;align=center;verticalAlign=middle;resizable=0;points=[];" vertex="1" connectable="0" parent="pCKhLSZLh_s8INQtUIwe-17">
          <mxGeometry x="0.0083" y="-1" relative="1" as="geometry">
            <mxPoint as="offset" />
          </mxGeometry>
        </mxCell>
        <mxCell id="pCKhLSZLh_s8INQtUIwe-23" style="edgeStyle=orthogonalEdgeStyle;rounded=0;orthogonalLoop=1;jettySize=auto;html=1;exitX=0.5;exitY=0;exitDx=0;exitDy=0;entryX=1;entryY=1;entryDx=0;entryDy=0;" edge="1" parent="1" source="pCKhLSZLh_s8INQtUIwe-4" target="pCKhLSZLh_s8INQtUIwe-1">
          <mxGeometry relative="1" as="geometry">
            <Array as="points">
              <mxPoint x="410" y="475" />
              <mxPoint x="260" y="475" />
              <mxPoint x="260" y="358" />
            </Array>
          </mxGeometry>
        </mxCell>
        <mxCell id="pCKhLSZLh_s8INQtUIwe-24" value="0" style="edgeLabel;html=1;align=center;verticalAlign=middle;resizable=0;points=[];" vertex="1" connectable="0" parent="pCKhLSZLh_s8INQtUIwe-23">
          <mxGeometry x="0.0042" y="-1" relative="1" as="geometry">
            <mxPoint as="offset" />
          </mxGeometry>
        </mxCell>
        <mxCell id="pCKhLSZLh_s8INQtUIwe-4" value="State 3&lt;br&gt;100" style="ellipse;whiteSpace=wrap;html=1;" vertex="1" parent="1">
          <mxGeometry x="350" y="580" width="120" height="80" as="geometry" />
        </mxCell>
        <mxCell id="pCKhLSZLh_s8INQtUIwe-21" style="edgeStyle=orthogonalEdgeStyle;rounded=0;orthogonalLoop=1;jettySize=auto;html=1;exitX=0.5;exitY=0;exitDx=0;exitDy=0;entryX=0.5;entryY=1;entryDx=0;entryDy=0;" edge="1" parent="1" source="pCKhLSZLh_s8INQtUIwe-6" target="pCKhLSZLh_s8INQtUIwe-19">
          <mxGeometry relative="1" as="geometry" />
        </mxCell>
        <mxCell id="pCKhLSZLh_s8INQtUIwe-22" value="0" style="edgeLabel;html=1;align=center;verticalAlign=middle;resizable=0;points=[];" vertex="1" connectable="0" parent="pCKhLSZLh_s8INQtUIwe-21">
          <mxGeometry x="-0.0143" relative="1" as="geometry">
            <mxPoint as="offset" />
          </mxGeometry>
        </mxCell>
        <mxCell id="pCKhLSZLh_s8INQtUIwe-33" style="edgeStyle=orthogonalEdgeStyle;rounded=0;orthogonalLoop=1;jettySize=auto;html=1;exitX=1;exitY=0;exitDx=0;exitDy=0;entryX=0;entryY=1;entryDx=0;entryDy=0;" edge="1" parent="1" source="pCKhLSZLh_s8INQtUIwe-6" target="pCKhLSZLh_s8INQtUIwe-2">
          <mxGeometry relative="1" as="geometry" />
        </mxCell>
        <mxCell id="pCKhLSZLh_s8INQtUIwe-34" value="1" style="edgeLabel;html=1;align=center;verticalAlign=middle;resizable=0;points=[];" vertex="1" connectable="0" parent="pCKhLSZLh_s8INQtUIwe-33">
          <mxGeometry x="-0.6259" relative="1" as="geometry">
            <mxPoint as="offset" />
          </mxGeometry>
        </mxCell>
        <mxCell id="pCKhLSZLh_s8INQtUIwe-6" value="State 4&lt;br&gt;1001" style="ellipse;whiteSpace=wrap;html=1;" vertex="1" parent="1">
          <mxGeometry x="110" y="580" width="120" height="80" as="geometry" />
        </mxCell>
        <mxCell id="pCKhLSZLh_s8INQtUIwe-7" value="0" style="edgeStyle=orthogonalEdgeStyle;rounded=0;orthogonalLoop=1;jettySize=auto;html=1;exitX=1;exitY=0;exitDx=0;exitDy=0;entryX=0.5;entryY=0;entryDx=0;entryDy=0;" edge="1" parent="1" source="pCKhLSZLh_s8INQtUIwe-1" target="pCKhLSZLh_s8INQtUIwe-1">
          <mxGeometry relative="1" as="geometry">
            <Array as="points">
              <mxPoint x="212" y="270" />
              <mxPoint x="250" y="270" />
              <mxPoint x="250" y="150" />
              <mxPoint x="170" y="150" />
            </Array>
          </mxGeometry>
        </mxCell>
        <mxCell id="pCKhLSZLh_s8INQtUIwe-9" style="edgeStyle=orthogonalEdgeStyle;rounded=0;orthogonalLoop=1;jettySize=auto;html=1;exitX=1;exitY=0;exitDx=0;exitDy=0;entryX=0.5;entryY=0;entryDx=0;entryDy=0;" edge="1" parent="1" source="pCKhLSZLh_s8INQtUIwe-2" target="pCKhLSZLh_s8INQtUIwe-2">
          <mxGeometry relative="1" as="geometry">
            <Array as="points">
              <mxPoint x="452" y="280" />
              <mxPoint x="490" y="280" />
              <mxPoint x="490" y="220" />
              <mxPoint x="410" y="220" />
            </Array>
          </mxGeometry>
        </mxCell>
        <mxCell id="pCKhLSZLh_s8INQtUIwe-10" value="1" style="edgeLabel;html=1;align=center;verticalAlign=middle;resizable=0;points=[];" vertex="1" connectable="0" parent="pCKhLSZLh_s8INQtUIwe-9">
          <mxGeometry x="0.0599" relative="1" as="geometry">
            <mxPoint as="offset" />
          </mxGeometry>
        </mxCell>
        <mxCell id="pCKhLSZLh_s8INQtUIwe-25" style="edgeStyle=orthogonalEdgeStyle;rounded=0;orthogonalLoop=1;jettySize=auto;html=1;exitX=1;exitY=1;exitDx=0;exitDy=0;entryX=0;entryY=0;entryDx=0;entryDy=0;" edge="1" parent="1" source="pCKhLSZLh_s8INQtUIwe-19" target="pCKhLSZLh_s8INQtUIwe-4">
          <mxGeometry relative="1" as="geometry" />
        </mxCell>
        <mxCell id="pCKhLSZLh_s8INQtUIwe-26" value="0" style="edgeLabel;html=1;align=center;verticalAlign=middle;resizable=0;points=[];" vertex="1" connectable="0" parent="pCKhLSZLh_s8INQtUIwe-25">
          <mxGeometry x="-0.4737" y="-1" relative="1" as="geometry">
            <mxPoint as="offset" />
          </mxGeometry>
        </mxCell>
        <mxCell id="pCKhLSZLh_s8INQtUIwe-29" style="edgeStyle=orthogonalEdgeStyle;rounded=0;orthogonalLoop=1;jettySize=auto;html=1;exitX=1;exitY=0;exitDx=0;exitDy=0;entryX=0.5;entryY=1;entryDx=0;entryDy=0;" edge="1" parent="1" source="pCKhLSZLh_s8INQtUIwe-19" target="pCKhLSZLh_s8INQtUIwe-2">
          <mxGeometry relative="1" as="geometry" />
        </mxCell>
        <mxCell id="pCKhLSZLh_s8INQtUIwe-30" value="1" style="edgeLabel;html=1;align=center;verticalAlign=middle;resizable=0;points=[];" vertex="1" connectable="0" parent="pCKhLSZLh_s8INQtUIwe-29">
          <mxGeometry x="-0.1537" relative="1" as="geometry">
            <mxPoint as="offset" />
          </mxGeometry>
        </mxCell>
        <mxCell id="pCKhLSZLh_s8INQtUIwe-19" value="State 5&lt;br&gt;10010" style="ellipse;whiteSpace=wrap;html=1;fillColor=#f8cecc;strokeColor=#b85450;" vertex="1" parent="1">
          <mxGeometry x="110" y="430" width="120" height="80" as="geometry" />
        </mxCell>
        <mxCell id="pCKhLSZLh_s8INQtUIwe-35" value="10010" style="text;html=1;align=center;verticalAlign=middle;resizable=0;points=[];autosize=1;strokeColor=none;fillColor=none;" vertex="1" parent="1">
          <mxGeometry x="750" y="350" width="60" height="30" as="geometry" />
        </mxCell>
        <mxCell id="pCKhLSZLh_s8INQtUIwe-36" value="" style="endArrow=none;html=1;rounded=0;" edge="1" parent="1">
          <mxGeometry width="50" height="50" relative="1" as="geometry">
            <mxPoint x="40" y="840" as="sourcePoint" />
            <mxPoint x="40" y="800" as="targetPoint" />
          </mxGeometry>
        </mxCell>
        <mxCell id="pCKhLSZLh_s8INQtUIwe-37" value="" style="endArrow=none;html=1;rounded=0;" edge="1" parent="1">
          <mxGeometry width="50" height="50" relative="1" as="geometry">
            <mxPoint x="40" y="800" as="sourcePoint" />
            <mxPoint x="80" y="800" as="targetPoint" />
          </mxGeometry>
        </mxCell>
        <mxCell id="pCKhLSZLh_s8INQtUIwe-38" value="" style="endArrow=none;html=1;rounded=0;" edge="1" parent="1">
          <mxGeometry width="50" height="50" relative="1" as="geometry">
            <mxPoint x="80" y="840" as="sourcePoint" />
            <mxPoint x="80" y="800" as="targetPoint" />
          </mxGeometry>
        </mxCell>
        <mxCell id="pCKhLSZLh_s8INQtUIwe-39" value="" style="endArrow=none;html=1;rounded=0;" edge="1" parent="1">
          <mxGeometry width="50" height="50" relative="1" as="geometry">
            <mxPoint x="80" y="840" as="sourcePoint" />
            <mxPoint x="120" y="840" as="targetPoint" />
          </mxGeometry>
        </mxCell>
        <mxCell id="pCKhLSZLh_s8INQtUIwe-40" value="" style="endArrow=none;html=1;rounded=0;" edge="1" parent="1">
          <mxGeometry width="50" height="50" relative="1" as="geometry">
            <mxPoint x="120" y="840" as="sourcePoint" />
            <mxPoint x="120" y="800" as="targetPoint" />
          </mxGeometry>
        </mxCell>
        <mxCell id="pCKhLSZLh_s8INQtUIwe-41" value="" style="endArrow=none;html=1;rounded=0;" edge="1" parent="1">
          <mxGeometry width="50" height="50" relative="1" as="geometry">
            <mxPoint x="119.51999999999998" y="840" as="sourcePoint" />
            <mxPoint x="119.51999999999998" y="800" as="targetPoint" />
          </mxGeometry>
        </mxCell>
        <mxCell id="pCKhLSZLh_s8INQtUIwe-42" value="" style="endArrow=none;html=1;rounded=0;" edge="1" parent="1">
          <mxGeometry width="50" height="50" relative="1" as="geometry">
            <mxPoint x="119.51999999999998" y="800" as="sourcePoint" />
            <mxPoint x="159.51999999999998" y="800" as="targetPoint" />
          </mxGeometry>
        </mxCell>
        <mxCell id="pCKhLSZLh_s8INQtUIwe-43" value="" style="endArrow=none;html=1;rounded=0;" edge="1" parent="1">
          <mxGeometry width="50" height="50" relative="1" as="geometry">
            <mxPoint x="159.51999999999998" y="840" as="sourcePoint" />
            <mxPoint x="159.51999999999998" y="800" as="targetPoint" />
          </mxGeometry>
        </mxCell>
        <mxCell id="pCKhLSZLh_s8INQtUIwe-44" value="" style="endArrow=none;html=1;rounded=0;" edge="1" parent="1">
          <mxGeometry width="50" height="50" relative="1" as="geometry">
            <mxPoint x="159.51999999999998" y="840" as="sourcePoint" />
            <mxPoint x="199.51999999999998" y="840" as="targetPoint" />
          </mxGeometry>
        </mxCell>
        <mxCell id="pCKhLSZLh_s8INQtUIwe-45" value="" style="endArrow=none;html=1;rounded=0;" edge="1" parent="1">
          <mxGeometry width="50" height="50" relative="1" as="geometry">
            <mxPoint x="199.51999999999998" y="840" as="sourcePoint" />
            <mxPoint x="199.51999999999998" y="800" as="targetPoint" />
          </mxGeometry>
        </mxCell>
        <mxCell id="pCKhLSZLh_s8INQtUIwe-46" value="" style="endArrow=none;html=1;rounded=0;" edge="1" parent="1">
          <mxGeometry width="50" height="50" relative="1" as="geometry">
            <mxPoint x="200" y="840" as="sourcePoint" />
            <mxPoint x="200" y="800" as="targetPoint" />
          </mxGeometry>
        </mxCell>
        <mxCell id="pCKhLSZLh_s8INQtUIwe-47" value="" style="endArrow=none;html=1;rounded=0;" edge="1" parent="1">
          <mxGeometry width="50" height="50" relative="1" as="geometry">
            <mxPoint x="200" y="800" as="sourcePoint" />
            <mxPoint x="240" y="800" as="targetPoint" />
          </mxGeometry>
        </mxCell>
        <mxCell id="pCKhLSZLh_s8INQtUIwe-48" value="" style="endArrow=none;html=1;rounded=0;" edge="1" parent="1">
          <mxGeometry width="50" height="50" relative="1" as="geometry">
            <mxPoint x="240" y="840" as="sourcePoint" />
            <mxPoint x="240" y="800" as="targetPoint" />
          </mxGeometry>
        </mxCell>
        <mxCell id="pCKhLSZLh_s8INQtUIwe-49" value="" style="endArrow=none;html=1;rounded=0;" edge="1" parent="1">
          <mxGeometry width="50" height="50" relative="1" as="geometry">
            <mxPoint x="240" y="840" as="sourcePoint" />
            <mxPoint x="280" y="840" as="targetPoint" />
          </mxGeometry>
        </mxCell>
        <mxCell id="pCKhLSZLh_s8INQtUIwe-50" value="" style="endArrow=none;html=1;rounded=0;" edge="1" parent="1">
          <mxGeometry width="50" height="50" relative="1" as="geometry">
            <mxPoint x="280" y="840" as="sourcePoint" />
            <mxPoint x="280" y="800" as="targetPoint" />
          </mxGeometry>
        </mxCell>
        <mxCell id="pCKhLSZLh_s8INQtUIwe-51" value="" style="endArrow=none;html=1;rounded=0;" edge="1" parent="1">
          <mxGeometry width="50" height="50" relative="1" as="geometry">
            <mxPoint x="279.52" y="840" as="sourcePoint" />
            <mxPoint x="279.52" y="800" as="targetPoint" />
          </mxGeometry>
        </mxCell>
        <mxCell id="pCKhLSZLh_s8INQtUIwe-52" value="" style="endArrow=none;html=1;rounded=0;" edge="1" parent="1">
          <mxGeometry width="50" height="50" relative="1" as="geometry">
            <mxPoint x="279.52" y="800" as="sourcePoint" />
            <mxPoint x="319.52" y="800" as="targetPoint" />
          </mxGeometry>
        </mxCell>
        <mxCell id="pCKhLSZLh_s8INQtUIwe-53" value="" style="endArrow=none;html=1;rounded=0;" edge="1" parent="1">
          <mxGeometry width="50" height="50" relative="1" as="geometry">
            <mxPoint x="319.52" y="840" as="sourcePoint" />
            <mxPoint x="319.52" y="800" as="targetPoint" />
          </mxGeometry>
        </mxCell>
        <mxCell id="pCKhLSZLh_s8INQtUIwe-54" value="" style="endArrow=none;html=1;rounded=0;" edge="1" parent="1">
          <mxGeometry width="50" height="50" relative="1" as="geometry">
            <mxPoint x="319.52" y="840" as="sourcePoint" />
            <mxPoint x="359.52" y="840" as="targetPoint" />
          </mxGeometry>
        </mxCell>
        <mxCell id="pCKhLSZLh_s8INQtUIwe-55" value="" style="endArrow=none;html=1;rounded=0;" edge="1" parent="1">
          <mxGeometry width="50" height="50" relative="1" as="geometry">
            <mxPoint x="359.52" y="840" as="sourcePoint" />
            <mxPoint x="359.52" y="800" as="targetPoint" />
          </mxGeometry>
        </mxCell>
        <mxCell id="pCKhLSZLh_s8INQtUIwe-56" value="" style="endArrow=none;html=1;rounded=0;" edge="1" parent="1">
          <mxGeometry width="50" height="50" relative="1" as="geometry">
            <mxPoint x="360" y="840" as="sourcePoint" />
            <mxPoint x="360" y="800" as="targetPoint" />
          </mxGeometry>
        </mxCell>
        <mxCell id="pCKhLSZLh_s8INQtUIwe-57" value="" style="endArrow=none;html=1;rounded=0;" edge="1" parent="1">
          <mxGeometry width="50" height="50" relative="1" as="geometry">
            <mxPoint x="360" y="800" as="sourcePoint" />
            <mxPoint x="400" y="800" as="targetPoint" />
          </mxGeometry>
        </mxCell>
        <mxCell id="pCKhLSZLh_s8INQtUIwe-58" value="" style="endArrow=none;html=1;rounded=0;" edge="1" parent="1">
          <mxGeometry width="50" height="50" relative="1" as="geometry">
            <mxPoint x="400" y="840" as="sourcePoint" />
            <mxPoint x="400" y="800" as="targetPoint" />
          </mxGeometry>
        </mxCell>
        <mxCell id="pCKhLSZLh_s8INQtUIwe-59" value="" style="endArrow=none;html=1;rounded=0;" edge="1" parent="1">
          <mxGeometry width="50" height="50" relative="1" as="geometry">
            <mxPoint x="400" y="840" as="sourcePoint" />
            <mxPoint x="440" y="840" as="targetPoint" />
          </mxGeometry>
        </mxCell>
        <mxCell id="pCKhLSZLh_s8INQtUIwe-60" value="" style="endArrow=none;html=1;rounded=0;" edge="1" parent="1">
          <mxGeometry width="50" height="50" relative="1" as="geometry">
            <mxPoint x="440" y="840" as="sourcePoint" />
            <mxPoint x="440" y="800" as="targetPoint" />
          </mxGeometry>
        </mxCell>
        <mxCell id="pCKhLSZLh_s8INQtUIwe-61" value="" style="endArrow=none;html=1;rounded=0;" edge="1" parent="1">
          <mxGeometry width="50" height="50" relative="1" as="geometry">
            <mxPoint x="439.52" y="840" as="sourcePoint" />
            <mxPoint x="439.52" y="800" as="targetPoint" />
          </mxGeometry>
        </mxCell>
        <mxCell id="pCKhLSZLh_s8INQtUIwe-62" value="" style="endArrow=none;html=1;rounded=0;" edge="1" parent="1">
          <mxGeometry width="50" height="50" relative="1" as="geometry">
            <mxPoint x="439.52" y="800" as="sourcePoint" />
            <mxPoint x="479.52" y="800" as="targetPoint" />
          </mxGeometry>
        </mxCell>
        <mxCell id="pCKhLSZLh_s8INQtUIwe-63" value="" style="endArrow=none;html=1;rounded=0;" edge="1" parent="1">
          <mxGeometry width="50" height="50" relative="1" as="geometry">
            <mxPoint x="479.52" y="840" as="sourcePoint" />
            <mxPoint x="479.52" y="800" as="targetPoint" />
          </mxGeometry>
        </mxCell>
        <mxCell id="pCKhLSZLh_s8INQtUIwe-64" value="" style="endArrow=none;html=1;rounded=0;" edge="1" parent="1">
          <mxGeometry width="50" height="50" relative="1" as="geometry">
            <mxPoint x="479.52" y="840" as="sourcePoint" />
            <mxPoint x="519.52" y="840" as="targetPoint" />
          </mxGeometry>
        </mxCell>
        <mxCell id="pCKhLSZLh_s8INQtUIwe-65" value="" style="endArrow=none;html=1;rounded=0;" edge="1" parent="1">
          <mxGeometry width="50" height="50" relative="1" as="geometry">
            <mxPoint x="519.52" y="840" as="sourcePoint" />
            <mxPoint x="519.52" y="800" as="targetPoint" />
          </mxGeometry>
        </mxCell>
        <mxCell id="pCKhLSZLh_s8INQtUIwe-66" value="" style="endArrow=none;html=1;rounded=0;" edge="1" parent="1">
          <mxGeometry width="50" height="50" relative="1" as="geometry">
            <mxPoint x="520" y="840" as="sourcePoint" />
            <mxPoint x="520" y="800" as="targetPoint" />
          </mxGeometry>
        </mxCell>
        <mxCell id="pCKhLSZLh_s8INQtUIwe-67" value="" style="endArrow=none;html=1;rounded=0;" edge="1" parent="1">
          <mxGeometry width="50" height="50" relative="1" as="geometry">
            <mxPoint x="520" y="800" as="sourcePoint" />
            <mxPoint x="560" y="800" as="targetPoint" />
          </mxGeometry>
        </mxCell>
        <mxCell id="pCKhLSZLh_s8INQtUIwe-68" value="" style="endArrow=none;html=1;rounded=0;" edge="1" parent="1">
          <mxGeometry width="50" height="50" relative="1" as="geometry">
            <mxPoint x="560" y="840" as="sourcePoint" />
            <mxPoint x="560" y="800" as="targetPoint" />
          </mxGeometry>
        </mxCell>
        <mxCell id="pCKhLSZLh_s8INQtUIwe-69" value="" style="endArrow=none;html=1;rounded=0;" edge="1" parent="1">
          <mxGeometry width="50" height="50" relative="1" as="geometry">
            <mxPoint x="560" y="840" as="sourcePoint" />
            <mxPoint x="600" y="840" as="targetPoint" />
          </mxGeometry>
        </mxCell>
        <mxCell id="pCKhLSZLh_s8INQtUIwe-70" value="" style="endArrow=none;html=1;rounded=0;" edge="1" parent="1">
          <mxGeometry width="50" height="50" relative="1" as="geometry">
            <mxPoint x="600" y="840" as="sourcePoint" />
            <mxPoint x="600" y="800" as="targetPoint" />
          </mxGeometry>
        </mxCell>
        <mxCell id="pCKhLSZLh_s8INQtUIwe-71" value="" style="endArrow=none;html=1;rounded=0;" edge="1" parent="1">
          <mxGeometry width="50" height="50" relative="1" as="geometry">
            <mxPoint x="599.52" y="840" as="sourcePoint" />
            <mxPoint x="599.52" y="800" as="targetPoint" />
          </mxGeometry>
        </mxCell>
        <mxCell id="pCKhLSZLh_s8INQtUIwe-72" value="" style="endArrow=none;html=1;rounded=0;" edge="1" parent="1">
          <mxGeometry width="50" height="50" relative="1" as="geometry">
            <mxPoint x="599.52" y="800" as="sourcePoint" />
            <mxPoint x="639.52" y="800" as="targetPoint" />
          </mxGeometry>
        </mxCell>
        <mxCell id="pCKhLSZLh_s8INQtUIwe-73" value="" style="endArrow=none;html=1;rounded=0;" edge="1" parent="1">
          <mxGeometry width="50" height="50" relative="1" as="geometry">
            <mxPoint x="639.52" y="840" as="sourcePoint" />
            <mxPoint x="639.52" y="800" as="targetPoint" />
          </mxGeometry>
        </mxCell>
        <mxCell id="pCKhLSZLh_s8INQtUIwe-74" value="" style="endArrow=none;html=1;rounded=0;" edge="1" parent="1">
          <mxGeometry width="50" height="50" relative="1" as="geometry">
            <mxPoint x="639.52" y="840" as="sourcePoint" />
            <mxPoint x="679.52" y="840" as="targetPoint" />
          </mxGeometry>
        </mxCell>
        <mxCell id="pCKhLSZLh_s8INQtUIwe-75" value="" style="endArrow=none;html=1;rounded=0;" edge="1" parent="1">
          <mxGeometry width="50" height="50" relative="1" as="geometry">
            <mxPoint x="679.52" y="840" as="sourcePoint" />
            <mxPoint x="679.52" y="800" as="targetPoint" />
          </mxGeometry>
        </mxCell>
        <mxCell id="pCKhLSZLh_s8INQtUIwe-77" value="" style="endArrow=none;html=1;rounded=0;" edge="1" parent="1">
          <mxGeometry width="50" height="50" relative="1" as="geometry">
            <mxPoint y="840" as="sourcePoint" />
            <mxPoint x="40" y="840" as="targetPoint" />
          </mxGeometry>
        </mxCell>
        <mxCell id="pCKhLSZLh_s8INQtUIwe-78" value="" style="rounded=1;whiteSpace=wrap;html=1;" vertex="1" parent="1">
          <mxGeometry x="40" y="740" width="200" height="50" as="geometry" />
        </mxCell>
        <mxCell id="pCKhLSZLh_s8INQtUIwe-80" value="0" style="text;html=1;strokeColor=none;fillColor=none;align=center;verticalAlign=middle;whiteSpace=wrap;rounded=0;" vertex="1" parent="1">
          <mxGeometry x="10" y="850" width="60" height="30" as="geometry" />
        </mxCell>
        <mxCell id="pCKhLSZLh_s8INQtUIwe-81" value="1" style="text;html=1;strokeColor=none;fillColor=none;align=center;verticalAlign=middle;whiteSpace=wrap;rounded=0;" vertex="1" parent="1">
          <mxGeometry x="90" y="850" width="60" height="30" as="geometry" />
        </mxCell>
        <mxCell id="pCKhLSZLh_s8INQtUIwe-82" value="2" style="text;html=1;strokeColor=none;fillColor=none;align=center;verticalAlign=middle;whiteSpace=wrap;rounded=0;" vertex="1" parent="1">
          <mxGeometry x="170" y="850" width="60" height="30" as="geometry" />
        </mxCell>
        <mxCell id="pCKhLSZLh_s8INQtUIwe-83" value="0" style="text;html=1;strokeColor=none;fillColor=none;align=center;verticalAlign=middle;whiteSpace=wrap;rounded=0;" vertex="1" parent="1">
          <mxGeometry x="50" y="880" width="60" height="30" as="geometry" />
        </mxCell>
        <mxCell id="pCKhLSZLh_s8INQtUIwe-84" value="1" style="text;html=1;strokeColor=none;fillColor=none;align=center;verticalAlign=middle;whiteSpace=wrap;rounded=0;" vertex="1" parent="1">
          <mxGeometry x="130" y="880" width="60" height="30" as="geometry" />
        </mxCell>
        <mxCell id="pCKhLSZLh_s8INQtUIwe-85" value="2" style="text;html=1;strokeColor=none;fillColor=none;align=center;verticalAlign=middle;whiteSpace=wrap;rounded=0;" vertex="1" parent="1">
          <mxGeometry x="210" y="880" width="60" height="30" as="geometry" />
        </mxCell>
        <mxCell id="pCKhLSZLh_s8INQtUIwe-86" value="" style="endArrow=none;html=1;rounded=0;" edge="1" parent="1">
          <mxGeometry width="50" height="50" relative="1" as="geometry">
            <mxPoint x="40" y="1000" as="sourcePoint" />
            <mxPoint x="240" y="1000" as="targetPoint" />
          </mxGeometry>
        </mxCell>
        <mxCell id="pCKhLSZLh_s8INQtUIwe-90" value="" style="endArrow=none;html=1;rounded=0;" edge="1" parent="1">
          <mxGeometry width="50" height="50" relative="1" as="geometry">
            <mxPoint x="240" y="960" as="sourcePoint" />
            <mxPoint x="440" y="960" as="targetPoint" />
          </mxGeometry>
        </mxCell>
        <mxCell id="pCKhLSZLh_s8INQtUIwe-91" value="" style="endArrow=none;html=1;rounded=0;" edge="1" parent="1">
          <mxGeometry width="50" height="50" relative="1" as="geometry">
            <mxPoint x="240" y="1000" as="sourcePoint" />
            <mxPoint x="240" y="960" as="targetPoint" />
          </mxGeometry>
        </mxCell>
      </root>
    </mxGraphModel>
  </diagram>
</mxfile>
